<?xml version="1.0" standalone="no"?>
<!DOCTYPE svg PUBLIC "-//W3C//DTD SVG 20010904//EN"
 "http://www.w3.org/TR/2001/REC-SVG-20010904/DTD/svg10.dtd">
<svg version="1.0" xmlns="http://www.w3.org/2000/svg"
 width="300.000000pt" height="222.000000pt" viewBox="0 0 300.000000 222.000000"
 preserveAspectRatio="xMidYMid meet">

<g transform="translate(0.000000,222.000000) scale(0.100000,-0.100000)"
fill="#000000" stroke="none">
<path d="M412 1807 c-226 -226 -412 -419 -412 -427 -1 -8 185 -198 412 -422
l413 -408 305 0 305 0 338 338 c216 216 337 344 337 357 0 12 -62 82 -162 182
l-163 163 -216 0 -215 0 -167 -161 c-92 -88 -167 -167 -167 -175 0 -12 40 -14
240 -14 132 0 240 -3 240 -8 0 -4 -55 -62 -123 -130 l-122 -122 -125 0 -126 0
-192 193 c-113 114 -192 201 -192 212 0 11 79 98 192 212 l192 193 286 0 285
0 203 203 c111 111 202 208 202 215 0 9 -124 12 -578 12 l-577 0 -413 -413z"/>
<path d="M2072 2017 c-121 -121 -202 -211 -202 -222 0 -12 101 -120 255 -275
195 -195 255 -261 255 -280 0 -19 -133 -157 -600 -625 -331 -331 -598 -604
-594 -608 4 -4 138 -7 298 -7 l291 0 613 613 c336 337 612 617 612 622 -1 24
-39 64 -268 290 -138 135 -245 249 -249 263 -5 21 19 49 191 221 108 108 194
200 190 204 -4 4 -138 7 -298 7 l-292 0 -202 -203z"/>
</g>
</svg>
